<svg width="564" height="423" viewBox="0 0 564 423" fill="none" xmlns="http://www.w3.org/2000/svg">
<path d="M35.2477 176.239C25.8995 176.239 16.9341 179.952 10.3238 186.563C3.7136 193.173 0 202.138 0 211.486C0 220.835 3.7136 229.8 10.3238 236.41C16.9341 243.021 25.8995 246.734 35.2477 246.734V176.239ZM528.716 246.734C538.065 246.734 547.03 243.021 553.64 236.41C560.25 229.8 563.964 220.835 563.964 211.486C563.964 202.138 560.25 193.173 553.64 186.563C547.03 179.952 538.065 176.239 528.716 176.239V246.734ZM35.2477 0C25.8995 0 16.9341 3.7136 10.3238 10.3238C3.7136 16.9341 0 25.8995 0 35.2477C0 44.596 3.7136 53.5614 10.3238 60.1717C16.9341 66.7819 25.8995 70.4955 35.2477 70.4955V0ZM528.716 70.4955C538.065 70.4955 547.03 66.7819 553.64 60.1717C560.25 53.5614 563.964 44.596 563.964 35.2477C563.964 25.8995 560.25 16.9341 553.64 10.3238C547.03 3.7136 538.065 0 528.716 0V70.4955ZM35.2477 352.477C25.8995 352.477 16.9341 356.191 10.3238 362.801C3.7136 369.412 0 378.377 0 387.725C0 397.074 3.7136 406.039 10.3238 412.649C16.9341 419.259 25.8995 422.973 35.2477 422.973V352.477ZM528.716 422.973C538.065 422.973 547.03 419.259 553.64 412.649C560.25 406.039 563.964 397.074 563.964 387.725C563.964 378.377 560.25 369.412 553.64 362.801C547.03 356.191 538.065 352.477 528.716 352.477V422.973ZM35.2477 246.734H528.716V176.239H35.2477V246.734ZM35.2477 70.4955H528.716V0H35.2477V70.4955ZM35.2477 422.973H528.716V352.477H35.2477V422.973Z" fill="black"/>
</svg>
