<svg width="564" height="561" viewBox="0 0 564 561" fill="none" xmlns="http://www.w3.org/2000/svg">
<path d="M563.964 281.982C563.964 126.205 437.654 0 281.982 0C126.205 0 0 126.205 0 281.982C0 422.691 103.082 539.361 237.922 560.492V363.51H166.317V282H237.922V219.84C237.922 149.186 279.955 110.167 344.388 110.167C375.248 110.167 407.552 115.665 407.552 115.665V185.051H371.934C336.968 185.051 326.042 206.816 326.042 229.11V281.982H404.239L391.673 363.492H326.042V560.474C460.776 539.343 563.964 422.673 563.964 281.964V281.982Z" />
</svg>
