<svg aria-hidden="true" style="position: absolute; width: 0; height: 0; overflow: hidden;" version="1.1" xmlns="http://www.w3.org/2000/svg" xmlns:xlink="http://www.w3.org/1999/xlink">
<defs>
<symbol id="add" viewBox="0 0 20 20">
<path d="M11 9v-4h-2v4h-4v2h4v4h2v-4h4v-2h-4zM10 20c-5.523 0-10-4.477-10-10s4.477-10 10-10v0c5.523 0 10 4.477 10 10s-4.477 10-10 10v0z"></path>
</symbol>
<symbol id="arrow" viewBox="0 0 32 32">
<path fill="none"  stroke-linejoin="round" stroke-linecap="round" stroke-miterlimit="4" stroke-width="2.6667" d="M8 12l8 8 8-8"></path>
</symbol>
<symbol id="burger" viewBox="0 0 43 32">
<path d="M2.667 13.332c-0.707 0-1.385 0.281-1.885 0.781s-0.781 1.178-0.781 1.885c0 0.707 0.281 1.385 0.781 1.886s1.178 0.781 1.885 0.781v-5.333zM39.997 18.665c0.707 0 1.385-0.281 1.886-0.781s0.781-1.178 0.781-1.886c0-0.707-0.281-1.385-0.781-1.885s-1.178-0.781-1.886-0.781v5.333zM2.667 0c-0.707 0-1.385 0.281-1.885 0.781s-0.781 1.178-0.781 1.885c0 0.707 0.281 1.385 0.781 1.885s1.178 0.781 1.885 0.781v-5.333zM39.997 5.333c0.707 0 1.385-0.281 1.886-0.781s0.781-1.178 0.781-1.885c0-0.707-0.281-1.385-0.781-1.885s-1.178-0.781-1.886-0.781v5.333zM2.667 26.665c-0.707 0-1.385 0.281-1.885 0.781s-0.781 1.178-0.781 1.886c0 0.707 0.281 1.385 0.781 1.886s1.178 0.781 1.885 0.781v-5.333zM39.997 31.998c0.707 0 1.385-0.281 1.886-0.781s0.781-1.178 0.781-1.886c0-0.707-0.281-1.385-0.781-1.886s-1.178-0.781-1.886-0.781v5.333zM2.667 18.665h37.331v-5.333h-37.331v5.333zM2.667 5.333h37.331v-5.333h-37.331v5.333zM2.667 31.998h37.331v-5.333h-37.331v5.333z"></path>
</symbol>
<symbol id="cart" viewBox="0 0 36 32">
<path d="M11.984 31.957c1.471 0 2.663-1.192 2.663-2.663s-1.192-2.663-2.663-2.663c-1.471 0-2.663 1.192-2.663 2.663s1.192 2.663 2.663 2.663z"></path>
<path d="M30.626 31.957c1.471 0 2.663-1.192 2.663-2.663s-1.192-2.663-2.663-2.663c-1.471 0-2.663 1.192-2.663 2.663s1.192 2.663 2.663 2.663z"></path>
<path d="M35.353 4.725c-0.187-0.229-0.423-0.413-0.69-0.54s-0.559-0.192-0.855-0.191h-25.329l-0.51-2.894c-0.054-0.308-0.216-0.588-0.456-0.789s-0.543-0.311-0.856-0.311h-5.326c-0.353 0-0.692 0.14-0.942 0.39s-0.39 0.588-0.39 0.942c0 0.353 0.14 0.692 0.39 0.942s0.588 0.39 0.942 0.39h4.209l3.8 21.536c0.054 0.308 0.216 0.588 0.456 0.789s0.543 0.311 0.856 0.311h21.305c0.353 0 0.692-0.14 0.942-0.39s0.39-0.588 0.39-0.942c0-0.353-0.14-0.692-0.39-0.942s-0.588-0.39-0.942-0.39h-20.188l-0.469-2.663h20.111c0.462-0.001 0.909-0.161 1.266-0.453s0.603-0.7 0.694-1.152l2.397-11.984c0.058-0.29 0.050-0.589-0.022-0.876s-0.207-0.554-0.394-0.783z"></path>
</symbol>
<symbol id="close" viewBox="0 0 32 32" stroke="transparent">
<path d="M5.747 0l-5.747 5.747 2.935 2.935 7.256 7.378-7.256 7.256-2.935 2.813 5.747 5.87 10.313-10.313 7.256 7.378 2.813 2.935 5.87-5.87-2.935-2.813-7.378-7.256 10.313-10.313-5.87-5.747-2.813 2.935-7.256 7.256-7.378-7.256-2.935-2.935z"></path>
</symbol>
<symbol id="clock" viewBox="0 0 32 32">
<path d="M20.586 23.414l-6.586-6.586v-8.828h4v7.172l5.414 5.414zM16 0c-8.837 0-16 7.163-16 16s7.163 16 16 16 16-7.163 16-16-7.163-16-16-16zM16 28c-6.627 0-12-5.373-12-12s5.373-12 12-12c6.627 0 12 5.373 12 12s-5.373 12-12 12z"></path>
</symbol>
<symbol id="check" viewBox="0 0 32 32">
<path d="M27 4l-15 15-7-7-5 5 12 12 20-20z"></path>
</symbol>
<symbol id="horn" viewBox="0 0 32 32">
<path d="M32 13.414c0-6.279-1.837-11.373-4.109-11.413 0.009-0 0.018-0.001 0.027-0.001h-2.592c0 0-6.088 4.573-14.851 6.367-0.268 1.415-0.438 3.102-0.438 5.047s0.171 3.631 0.438 5.047c8.763 1.794 14.851 6.367 14.851 6.367h2.592c-0.009 0-0.018-0.001-0.027-0.001 2.272-0.040 4.109-5.134 4.109-11.413zM27.026 23.102c-0.293 0-0.61-0.304-0.773-0.486-0.395-0.439-0.775-1.124-1.1-1.979-0.727-1.913-1.127-4.478-1.127-7.223s0.4-5.309 1.127-7.223c0.325-0.855 0.705-1.54 1.1-1.979 0.163-0.182 0.48-0.486 0.773-0.486s0.61 0.304 0.773 0.486c0.395 0.439 0.775 1.124 1.1 1.979 0.727 1.913 1.127 4.479 1.127 7.223s-0.4 5.309-1.127 7.223c-0.325 0.855-0.705 1.54-1.1 1.979-0.163 0.181-0.48 0.486-0.773 0.486zM7.869 13.414c0-1.623 0.119-3.201 0.345-4.659-1.48 0.205-2.779 0.323-4.386 0.323-2.096 0-2.096 0-2.096 0l-1.733 2.959v2.755l1.733 2.959c0 0 0 0 2.096 0 1.606 0 2.905 0.118 4.386 0.323-0.226-1.458-0.345-3.036-0.345-4.659zM11.505 20.068l-4-0.766 2.558 10.048c0.132 0.52 0.648 0.782 1.146 0.583l3.705-1.483c0.498-0.199 0.698-0.749 0.444-1.221l-3.853-7.161zM27.026 17.148c-0.113 0-0.235-0.117-0.298-0.187-0.152-0.169-0.299-0.433-0.424-0.763-0.28-0.738-0.434-1.726-0.434-2.784s0.154-2.046 0.434-2.784c0.125-0.33 0.272-0.593 0.424-0.763 0.063-0.070 0.185-0.187 0.298-0.187s0.235 0.117 0.298 0.187c0.152 0.169 0.299 0.433 0.424 0.763 0.28 0.737 0.434 1.726 0.434 2.784s-0.154 2.046-0.434 2.784c-0.125 0.33-0.272 0.593-0.424 0.763-0.063 0.070-0.185 0.187-0.298 0.187z"></path>
</symbol>
<symbol id="phone" viewBox="0 0 32 32" >
<path d="M30.799 1.536l-6.492-1.498c-0.705-0.162-1.429 0.206-1.717 0.868l-2.996 6.991c-0.262 0.612-0.087 1.33 0.431 1.748l3.783 3.096c-2.247 4.788-6.173 8.77-11.061 11.061l-3.096-3.783c-0.425-0.518-1.136-0.693-1.748-0.431l-6.991 2.996c-0.668 0.293-1.036 1.017-0.874 1.723l1.498 6.492c0.156 0.674 0.755 1.161 1.461 1.161 15.986 0 28.963-12.952 28.963-28.963 0-0.699-0.481-1.305-1.161-1.461z"></path>
</symbol>
<symbol id="road" viewBox="0 0 32 32"  stroke="white">
<path d="M13.983 27.166l-9.188-9.188c-1.040-1.040-1.040-2.955 0-3.995l9.188-9.188c1.040-1.040 2.955-1.040 3.995 0l9.189 9.188c1.040 1.040 1.040 2.955 0 3.995l-9.188 9.188c-1.040 1.040-2.955 1.040-3.995 0z"></path>
<path stroke-linejoin="round" stroke-linecap="round" stroke-miterlimit="4" stroke-width="2.6633" d="M11.985 18.643v-2.663c0-0.786 0.551-1.332 1.332-1.332h6.658"></path>
<path stroke-linejoin="round" stroke-linecap="round" stroke-miterlimit="4" stroke-width="2.6633" d="M17.312 11.985l2.663 2.663-2.663 2.663"></path>
</symbol>
<symbol id="up" viewBox="0 0 32 32">
<path d="M13 30h5c1.654 0 3-1.346 3-3 0-0.535-0.14-1.037-0.387-1.472 0.833-0.534 1.387-1.467 1.387-2.528 0-0.768-0.29-1.469-0.766-2 0.476-0.531 0.766-1.232 0.766-2 0-0.35-0.060-0.687-0.171-1h7.171c1.654 0 3-1.346 3-3s-1.346-3-3-3h-12.334l2.932-5.501c0.262-0.454 0.401-0.973 0.401-1.499 0-1.654-1.346-3-3-3-0.824 0-1.592 0.327-2.163 0.922-0.007 0.008-0.015 0.015-0.022 0.023l-6.815 7.474v-1.419c0-0.552-0.448-1-1-1h-6c-0.552 0-1 0.448-1 1v20c0 0.552 0.448 1 1 1h6c0.552 0 1-0.448 1-1v-1.382l4.553 2.276c0.139 0.069 0.292 0.106 0.447 0.106zM5 28c-0.552 0-1-0.448-1-1s0.448-1 1-1 1 0.448 1 1-0.448 1-1 1zM13.236 28l-5.236-2.618v-11.995l8.287-9.088c0.19-0.193 0.443-0.299 0.713-0.299 0.551 0 1 0.449 1 1 0 0.171-0.041 0.332-0.122 0.479-0.010 0.017-0.020 0.033-0.029 0.051l-3.732 7c-0.165 0.31-0.156 0.684 0.025 0.985s0.506 0.485 0.857 0.485h14c0.551 0 1 0.449 1 1s-0.449 1-1 1h-10c-0.552 0-1 0.448-1 1s0.448 1 1 1c0.551 0 1 0.449 1 1s-0.449 1-1 1c-0.552 0-1 0.448-1 1s0.448 1 1 1c0.551 0 1 0.449 1 1s-0.449 1-1 1h-1c-0.552 0-1 0.448-1 1s0.448 1 1 1c0.551 0 1 0.449 1 1s-0.449 1-1 1h-4.764z"></path>
</symbol>
</defs>
</svg>
