<svg width="569" height="569" viewBox="0 0 569 569" fill="none" xmlns="http://www.w3.org/2000/svg">
<path d="M547.641 27.3158L432.211 0.677949C419.669 -2.20782 406.794 4.34065 401.688 16.1057L348.412 140.416C343.751 151.293 346.859 164.057 356.071 171.493L423.331 226.545C383.375 311.675 313.561 382.487 226.655 423.221L171.604 355.96C164.056 346.748 151.403 343.64 140.526 348.302L16.2163 401.578C4.34021 406.794 -2.20826 419.669 0.677507 432.211L27.3154 547.642C30.0901 559.629 40.7453 568.286 53.2873 568.286C337.535 568.286 568.286 337.98 568.286 53.2877C568.286 40.8567 559.739 30.0906 547.641 27.3158Z" fill="black"/>
</svg>
