<svg width="564" height="743" viewBox="0 0 564 743" fill="none" xmlns="http://www.w3.org/2000/svg">
<path d="M563.809 563.793C559.448 593.766 498.264 671.528 470.116 682.788C460.496 686.623 451.217 685.695 443.824 680.004C439.061 676.292 434.111 668.714 368.134 561.627L348.554 529.706C341.006 518.261 342.398 503.197 351.771 491.69C360.957 480.586 374.413 476.41 386.136 480.864C386.755 481.235 435.503 497.289 435.503 497.289C546.487 533.758 550.106 535.15 554.808 538.676C561.829 544.429 565.077 553.368 563.623 563.823L563.809 563.793ZM341.378 400.874C333.521 388.934 333.645 374.86 341.749 365.148L372.619 323.111C440.329 230.81 444.102 225.954 448.68 222.737C456.599 217.448 466.312 217.2 475.622 221.747C502.502 234.801 556.756 315.44 560.035 346.372V347.424C560.932 357.972 556.787 366.54 549.333 371.674C544.26 374.922 539.62 376.809 413.449 407.432C393.498 412.505 382.393 415.288 375.867 417.608L376.764 416.68C364.267 420.392 350.348 414.391 342.46 401.864L341.378 400.874ZM263.924 353.053C257.892 354.94 239.519 360.632 216.938 324.039C216.938 324.039 64.4131 84.0385 60.825 76.6457C58.6597 68.2941 61.2889 58.8908 68.7126 51.2816C91.4166 27.7424 214.618 -6.7158 246.88 1.14091C257.397 3.86292 264.635 10.4514 267.172 19.8238C269.028 30.186 284.03 252.927 286.195 302.82C288.236 345.506 269.956 351.228 263.924 353.053ZM284.061 597.199C283.72 713.936 283.473 717.834 281.555 723.37C278.307 732.062 270.853 737.877 260.491 739.764C230.796 744.837 137.784 710.503 118.389 687.489C114.88 683.09 112.634 677.818 111.894 672.24C111.399 668.528 111.894 664.816 113.285 661.537C115.605 655.506 118.853 650.866 202.369 552.966L226.929 523.767C235.312 513.095 250.128 509.847 264.017 515.384C277.503 520.488 285.855 532.087 284.927 544.615V596.58L284.061 597.199ZM30.9447 522.529C21.8198 522.22 13.6228 516.745 8.82839 507.682C5.39495 501.032 2.98226 490.051 1.46659 476.688C-2.77108 436.446 2.36362 375.726 14.4271 356.456C20.0876 347.64 28.3464 342.97 37.4713 343.279C43.5031 343.279 48.8852 345.166 168.282 394.317L203.236 408.205C215.732 412.845 223.465 425.836 222.723 440.714C221.795 455.098 213.505 466.202 201.256 469.481L151.61 485.256C40.5645 520.983 36.8836 521.911 31.0375 521.447L30.9447 522.529ZM494.212 742.301H494.088L493.934 742.393L494.212 742.301Z" />
</svg>
