<svg width="564" height="504" viewBox="0 0 564 504" fill="none" xmlns="http://www.w3.org/2000/svg">
<path d="M188.747 503.326C211.912 503.326 230.691 484.547 230.691 461.382C230.691 438.217 211.912 419.438 188.747 419.438C165.582 419.438 146.803 438.217 146.803 461.382C146.803 484.547 165.582 503.326 188.747 503.326Z" fill="black"/>
<path d="M482.354 503.326C505.519 503.326 524.298 484.547 524.298 461.382C524.298 438.217 505.519 419.438 482.354 419.438C459.189 419.438 440.41 438.217 440.41 461.382C440.41 484.547 459.189 503.326 482.354 503.326Z" fill="black"/>
<path d="M556.805 74.4241C553.858 70.8202 550.146 67.9176 545.938 65.927C541.73 63.9364 537.132 62.9078 532.477 62.9158H133.552L125.517 17.3281C124.66 12.4721 122.12 8.07334 118.342 4.90438C114.564 1.73543 109.791 -0.00103603 104.86 4.63744e-07H20.9719C15.4098 4.63744e-07 10.0755 2.20954 6.14253 6.14254C2.20953 10.0755 0 15.4098 0 20.9719C0 26.534 2.20953 31.8683 6.14253 35.8013C10.0755 39.7343 15.4098 41.9438 20.9719 41.9438H87.2694L147.118 381.138C147.975 385.994 150.515 390.393 154.293 393.562C158.071 396.731 162.844 398.468 167.775 398.467H503.326C508.888 398.467 514.223 396.257 518.156 392.324C522.089 388.391 524.298 383.057 524.298 377.495C524.298 371.932 522.089 366.598 518.156 362.665C514.223 358.732 508.888 356.523 503.326 356.523H185.366L177.973 314.579H494.728C502.001 314.57 509.047 312.048 514.674 307.44C520.302 302.833 524.164 296.423 525.609 289.295L563.358 100.547C564.268 95.9794 564.152 91.2664 563.018 86.7488C561.885 82.2312 559.763 78.0217 556.805 74.4241Z" fill="black"/>
</svg>
