<svg width="564" height="564" viewBox="0 0 564 564" fill="none" xmlns="http://www.w3.org/2000/svg">
<path fill-rule="evenodd" clip-rule="evenodd" d="M165.727 1.69189C195.805 0.313256 205.393 0 281.982 0C358.586 0 368.158 0.328893 398.22 1.69189C428.251 3.05489 448.759 7.83295 466.696 14.8041C485.509 21.8872 502.551 32.9852 516.637 47.3261C530.98 61.4106 542.08 78.4541 549.16 97.2682C556.13 115.205 560.893 135.712 562.272 165.727C563.651 195.805 563.964 205.393 563.964 281.982C563.964 358.571 563.636 368.158 562.272 398.238C560.908 428.251 556.13 448.759 549.16 466.696C541.954 485.23 532.303 500.972 516.637 516.637C502.553 530.98 485.509 542.08 466.696 549.16C448.759 556.13 428.251 560.893 398.238 562.272C368.158 563.651 358.571 563.964 281.982 563.964C205.393 563.964 195.805 563.636 165.727 562.272C135.712 560.908 115.205 556.13 97.2682 549.16C78.7355 541.954 62.9917 532.303 47.3261 516.637C32.9827 502.553 21.8839 485.509 14.8041 466.696C7.83295 448.759 3.07053 428.251 1.69189 398.238C0.313256 368.158 0 358.586 0 281.982C0 205.377 0.328893 195.805 1.69189 165.743C3.05489 135.712 7.83295 115.205 14.8041 97.2682C21.8872 78.4553 32.9852 61.4126 47.3261 47.3261C61.4103 32.9827 78.4538 21.8839 97.2682 14.8041C115.205 7.83295 135.712 3.07053 165.727 1.69189ZM395.933 52.4487C366.2 51.1013 357.271 50.8037 281.982 50.8037C206.693 50.8037 197.763 51.1013 168.03 52.4487C140.537 53.7019 125.607 58.2918 115.675 62.1614C102.516 67.2683 93.1166 73.3779 83.2472 83.2472C73.3938 93.1166 67.2683 102.516 62.1614 115.675C58.2918 125.607 53.7019 140.537 52.4487 168.03C51.1013 197.763 50.8037 206.693 50.8037 281.982C50.8037 357.271 51.1013 366.2 52.4487 395.933C53.7019 423.427 58.2918 438.356 62.1614 448.29C66.6787 460.538 73.8842 471.617 83.2472 480.718C92.345 490.08 103.426 497.286 115.675 501.802C125.607 505.673 140.537 510.262 168.03 511.515C197.763 512.864 206.677 513.161 281.982 513.161C357.287 513.161 366.2 512.864 395.933 511.515C423.427 510.262 438.356 505.673 448.29 501.802C461.448 496.696 470.848 490.587 480.718 480.718C490.08 471.62 497.286 460.538 501.802 448.29C505.673 438.356 510.262 423.427 511.515 395.933C512.864 366.2 513.161 357.271 513.161 281.982C513.161 206.693 512.864 197.763 511.515 168.03C510.262 140.537 505.673 125.607 501.802 115.675C496.696 102.516 490.587 93.1166 480.718 83.2472C470.848 73.3938 461.448 67.2683 448.29 62.1614C438.356 58.2918 423.427 53.7019 395.933 52.4487ZM245.978 368.907C257.393 373.636 269.626 376.069 281.982 376.069C306.937 376.069 330.867 366.156 348.512 348.512C366.159 330.867 376.072 306.935 376.072 281.982C376.072 257.029 366.159 233.097 348.512 215.452C330.867 197.807 306.937 187.894 281.982 187.894C269.626 187.894 257.393 190.328 245.978 195.056C234.56 199.784 224.189 206.715 215.452 215.452C206.716 224.189 199.785 234.56 195.057 245.975C190.328 257.391 187.895 269.626 187.895 281.982C187.895 294.338 190.328 306.573 195.057 317.989C199.785 329.404 206.716 339.775 215.452 348.512C224.189 357.248 234.56 364.18 245.978 368.907ZM179.496 179.495C206.677 152.313 243.543 137.043 281.982 137.043C320.424 137.043 357.289 152.313 384.47 179.495C411.65 206.676 426.921 243.543 426.921 281.982C426.921 320.421 411.65 357.287 384.47 384.47C357.289 411.65 320.424 426.921 281.982 426.921C243.543 426.921 206.677 411.65 179.496 384.47C152.314 357.287 137.044 320.421 137.044 281.982C137.044 243.543 152.314 206.676 179.496 179.495ZM459.059 158.637C465.483 152.212 469.092 143.498 469.092 134.411C469.092 125.325 465.483 116.61 459.059 110.185C452.632 103.76 443.919 100.151 434.832 100.151C425.747 100.151 417.031 103.76 410.607 110.185C404.18 116.61 400.571 125.325 400.571 134.411C400.571 143.498 404.18 152.212 410.607 158.637C417.031 165.063 425.747 168.672 434.832 168.672C443.919 168.672 452.632 165.063 459.059 158.637Z" />
</svg>
